
<svg width="83" height="18" viewBox="0 0 83 18" fill="none" xmlns="http://www.w3.org/2000/svg">
<g clip-path="url(#clip0_1311_1399)">
<path fill-rule="evenodd" clip-rule="evenodd" d="M10.3235 10.413V0H3.59769V2.35577C4.53527 2.98244 5.85081 3.23432 7.19375 3.35149V9.40106C7.19375 10.7511 6.10052 11.8455 4.75197 11.8455C4.11358 11.8455 3.59601 12.3636 3.59601 13.0027V14.9787H11.7544V11.8455C10.9642 11.8455 10.3235 11.2042 10.3235 10.413Z" fill="white"/>
<path fill-rule="evenodd" clip-rule="evenodd" d="M29.6874 2.81685C33.0974 2.81685 35.8718 5.59429 35.8718 9.0085C35.8718 9.43774 35.8276 9.85673 35.7441 10.2616L26.8529 10.2616C27.2745 11.4149 28.2793 12.3105 29.6874 12.3105C30.5438 12.3105 31.3263 11.9376 31.8492 11.4105H35.4052C34.4664 13.6347 32.247 15.1997 29.6874 15.1997C26.2769 15.1997 23.5025 12.4224 23.5025 9.0085C23.5025 5.59429 26.2769 2.81685 29.6874 2.81685ZM15.7458 0L15.7455 7.86055L20.9455 3.1878H25.631L19.1538 9.0085L25.631 14.8288H20.9453L15.7455 10.1564L15.7458 14.9787H12.616V0H15.7458ZM29.6874 5.72507C28.3049 5.72507 27.2571 6.65005 26.8353 7.83554H32.6227C32.1935 6.65005 31.1237 5.72507 29.6874 5.72507ZM39.7617 10.2616C40.1833 11.4149 41.188 12.3105 42.5961 12.3105C43.4525 12.3105 44.2351 11.9376 44.758 11.4105H48.3139C47.3751 13.6347 45.1558 15.1997 42.5961 15.1997C39.1856 15.1997 36.4112 12.4224 36.4112 9.0085C36.4112 5.59429 39.1856 2.81685 42.5961 2.81685C46.0062 2.81685 48.7806 5.59429 48.7806 9.0085C48.7806 9.43774 48.7363 9.85673 48.6529 10.2616L39.7617 10.2616ZM42.5961 5.72507C41.2136 5.72507 40.1658 6.65005 39.7441 7.83554H45.5314C45.1022 6.65005 44.0325 5.72507 42.5961 5.72507ZM55.6427 2.81687C59.0528 2.81687 61.8272 5.59431 61.8272 9.00852C61.8272 12.4223 59.0528 15.1997 55.6427 15.1997C54.4501 15.1997 53.4271 14.86 52.588 14.2721L52.588 18H49.4583V9.0083C49.4583 5.59431 52.2327 2.81687 55.6427 2.81687ZM55.6427 5.95002C53.9586 5.95002 52.5882 7.32186 52.588 9.00824L52.588 9.02809L52.589 9.08732C52.6309 10.7371 53.9848 12.0666 55.6427 12.0666C57.327 12.0666 58.6975 10.6946 58.6975 9.00852C58.6975 7.322 57.327 5.95002 55.6427 5.95002ZM65.717 10.2616C66.1386 11.4149 67.1434 12.3105 68.5515 12.3105C69.4079 12.3105 70.1905 11.9376 70.7133 11.4105H74.2693C73.3305 13.6347 71.1111 15.1997 68.5515 15.1997C65.141 15.1997 62.3666 12.4224 62.3666 9.0085C62.3666 5.59429 65.141 2.81685 68.5515 2.81685C71.9615 2.81685 74.7359 5.59429 74.7359 9.0085C74.7359 9.43774 74.6917 9.85673 74.6082 10.2616L65.717 10.2616ZM68.5515 5.72507C67.169 5.72507 66.1212 6.65005 65.6994 7.83554H71.4868C71.0576 6.65005 69.9878 5.72507 68.5515 5.72507ZM78.5434 14.8288H75.4137V7.89688C75.4137 5.30024 77.5238 3.18779 80.1176 3.18779H83V6.32094H80.1176C79.2496 6.32094 78.5434 7.02794 78.5434 7.89688V14.8288Z" fill="white"/>
<path fill-rule="evenodd" clip-rule="evenodd" d="M2.44178 11.8456C1.09323 11.8456 0 10.7511 0 9.40112V3.35155C1.34294 3.23431 2.65848 2.98244 3.59606 2.35583V12.9863C3.58702 12.355 3.07457 11.8456 2.44178 11.8456Z" fill="#032DFF"/>
</g>
<defs>
<clipPath id="clip0_1311_1399">
<rect width="83" height="18" fill="white"/>
</clipPath>
</defs>
</svg>
